<svg width="48" height="48" viewBox="0 0 48 48" fill="none" xmlns="http://www.w3.org/2000/svg">
<rect width="48" height="48" rx="24" fill="#4F46E5"/>
<g clip-path="url(#clip0_393_1185)">
<g clip-path="url(#clip1_393_1185)">
<path d="M31.2727 22.8182C31.2727 23.5942 31.1199 24.3626 30.8229 25.0795C30.526 25.7965 30.0907 26.4479 29.542 26.9966C28.9933 27.5453 28.3419 27.9806 27.6249 28.2775C26.908 28.5745 26.1396 28.7273 25.3636 28.7273H17.6364L15.8182 30.5455V17.3637C15.8182 15.7965 16.4407 14.2935 17.5489 13.1853C18.6571 12.0772 20.1601 11.4546 21.7273 11.4546H25.3636C26.1396 11.4546 26.908 11.6074 27.6249 11.9044C28.3419 12.2014 28.9933 12.6366 29.542 13.1853C30.0907 13.734 30.526 14.3854 30.8229 15.1024C31.1199 15.8193 31.2727 16.5877 31.2727 17.3637V22.8182Z" stroke="white" stroke-width="1.45455" stroke-linecap="round" stroke-linejoin="round"/>
</g>
</g>
<path d="M16.4547 43V41.56H18.3747V35.956H16.7547V34.852C17.2027 34.772 17.5867 34.676 17.9067 34.564C18.2347 34.444 18.5387 34.292 18.8187 34.108H20.1267V41.56H21.7947V43H16.4547ZM24.5048 38.608C24.1848 38.608 23.9208 38.5 23.7128 38.284C23.5048 38.06 23.4008 37.788 23.4008 37.468C23.4008 37.132 23.5048 36.856 23.7128 36.64C23.9208 36.424 24.1848 36.316 24.5048 36.316C24.8168 36.316 25.0768 36.424 25.2848 36.64C25.4928 36.856 25.5968 37.132 25.5968 37.468C25.5968 37.788 25.4928 38.06 25.2848 38.284C25.0768 38.5 24.8168 38.608 24.5048 38.608ZM24.5048 43.168C24.1848 43.168 23.9208 43.056 23.7128 42.832C23.5048 42.608 23.4008 42.336 23.4008 42.016C23.4008 41.68 23.5048 41.404 23.7128 41.188C23.9208 40.972 24.1848 40.864 24.5048 40.864C24.8168 40.864 25.0768 40.972 25.2848 41.188C25.4928 41.404 25.5968 41.68 25.5968 42.016C25.5968 42.336 25.4928 42.608 25.2848 42.832C25.0768 43.056 24.8168 43.168 24.5048 43.168ZM27.4352 43V41.56H29.3552V35.956H27.7352V34.852C28.1832 34.772 28.5672 34.676 28.8872 34.564C29.2152 34.444 29.5192 34.292 29.7992 34.108H31.1072V41.56H32.7752V43H27.4352Z" fill="white"/>
<defs>
<clipPath id="clip0_393_1185">
<rect width="20" height="20" fill="white" transform="translate(14 11)"/>
</clipPath>
<clipPath id="clip1_393_1185">
<rect width="20" height="20" fill="white" transform="translate(14 11)"/>
</clipPath>
</defs>
</svg>
